HIERARCHY
ROOT Hips
{
  OFFSET 54.4758 91.562 37.1021
  CHANNELS 6 Xposition Yposition Zposition Zrotation Xrotation Yrotation
  JOINT spine
  {
    OFFSET 0 6.84637 0.3937
    CHANNELS 3 Zrotation Xrotation Yrotation
    JOINT spine1
    {
      OFFSET 0 9.49621 0
      CHANNELS 3 Zrotation Xrotation Yrotation
      JOINT spine2
      {
        OFFSET 0 9.09909 0
        CHANNELS 3 Zrotation Xrotation Yrotation
        JOINT Neck
        {
          OFFSET 0 23.3612 1.11378
          CHANNELS 3 Zrotation Xrotation Yrotation
          JOINT Head
          {
            OFFSET 0 7.05802 0
            CHANNELS 3 Zrotation Xrotation Yrotation
            End Site
            {
              OFFSET 0 17.0844 -5.63419
            }
          }
        }
        JOINT RightShoulder
        {
          OFFSET -3.83136 9.82631 -0.533491
          CHANNELS 3 Zrotation Xrotation Yrotation
          JOINT RightArm
          {
            OFFSET 0 12.8881 0
            CHANNELS 3 Zrotation Xrotation Yrotation
            JOINT RightArmRoll
            {
              OFFSET 0 6.50617 0
              CHANNELS 3 Zrotation Xrotation Yrotation
              JOINT RightForeArm
              {
                OFFSET 0 18.9501 0
                CHANNELS 3 Zrotation Xrotation Yrotation
                JOINT RightForeArmRoll
                {
                  OFFSET 0 7.30092 0
                  CHANNELS 3 Zrotation Xrotation Yrotation
                  JOINT RightHand
                  {
                    OFFSET 0 14.6514 0
                    CHANNELS 3 Zrotation Xrotation Yrotation
                    End Site
                    {
                      OFFSET 0 0 0
                    }
                  }
                }
              }
            }
          }
        }
        JOINT LeftShoulder
        {
          OFFSET 3.83136 9.82631 -0.533491
          CHANNELS 3 Zrotation Xrotation Yrotation
          JOINT LeftArm
          {
            OFFSET 0 12.8881 0
            CHANNELS 3 Zrotation Xrotation Yrotation
            JOINT LeftArmRoll
            {
              OFFSET 0 6.50616 0
              CHANNELS 3 Zrotation Xrotation Yrotation
              JOINT LeftForeArm
              {
                OFFSET 0 18.9501 0
                CHANNELS 3 Zrotation Xrotation Yrotation
                JOINT LeftForeArmRoll
                {
                  OFFSET 0 7.30092 0
                  CHANNELS 3 Zrotation Xrotation Yrotation
                  JOINT LeftHand
                  {
                    OFFSET 0 14.6514 0
                    CHANNELS 3 Zrotation Xrotation Yrotation
                    End Site
                    {
                      OFFSET 0 0 0
                    }
                  }
                }
              }
            }
          }
        }
      }
    }
  }
  JOINT RightUpLeg
  {
    OFFSET -6.06837 -1.11278 -0.933477
    CHANNELS 3 Zrotation Xrotation Yrotation
    JOINT RightUpLegRoll
    {
      OFFSET 0 17.1796 0
      CHANNELS 3 Zrotation Xrotation Yrotation
      JOINT RightLeg
      {
        OFFSET 0 -21.2743 0
        CHANNELS 3 Zrotation Xrotation Yrotation
        JOINT RightLegRoll
        {
          OFFSET 0 21.3439 0
          CHANNELS 3 Zrotation Xrotation Yrotation
          JOINT RightFoot
          {
            OFFSET 0 17.7652 0
            CHANNELS 3 Zrotation Xrotation Yrotation
            JOINT RightToeBase
            {
              OFFSET 0 14.8508 0
              CHANNELS 3 Zrotation Xrotation Yrotation
              End Site
              {
                OFFSET 0.0062947 7.19213 -0.829005
              }
            }
          }
        }
      }
    }
  }
  JOINT LeftUpLeg
  {
    OFFSET 6.06837 -1.11278 -0.933477
    CHANNELS 3 Zrotation Xrotation Yrotation
    JOINT LeftUpLegRoll
    {
      OFFSET 0 17.1797 0
      CHANNELS 3 Zrotation Xrotation Yrotation
      JOINT LeftLeg
      {
        OFFSET 0 21.2742 0
        CHANNELS 3 Zrotation Xrotation Yrotation
        JOINT LeftLegRoll
        {
          OFFSET 0 21.5412 0
          CHANNELS 3 Zrotation Xrotation Yrotation
          JOINT LeftFoot
          {
            OFFSET 0 17.5679 0
            CHANNELS 3 Zrotation Xrotation Yrotation
            JOINT LeftToeBase
            {
              OFFSET 0 14.8508 0
              CHANNELS 3 Zrotation Xrotation Yrotation
              End Site
              {
                OFFSET -0.0282102 7.19213 -0.829005
              }
            }
          }
        }
      }
    }
  }
}
MOTION
Frames: 4
Frame Time: 0.00208333
53.4137 57.5821 -6.18294 -2.23447 -23.4923 -2.9903 0.46183 1.77953 0.295575 0.917907 7.56421 0.507125 0.914115 9.20916 0.49253 -0.347049 38.6887 0.0734818 -1.5532 -17.9831 -0.489864 77.6657 7.94901 1.13329 91.3739 21.4018 -10.4922 2.16427e-006 6.7682e-007 -6.25189e-006 20.3588 40.4546 -8.43716 -7.96504e-006 1.62816e-006 -2.99999 8.02891 -4.95085 0.697371 -71.5685 6.22595 -1.47886 -99.3078 23.4605 0.646773 -3.71702e-006 -3.96598e-006 2.33218e-006 -22.5146 33.2521 7.98179 1.7741e-005 5.63921e-006 3 -8.02924 -4.95119 -0.697549 170.258 58.9699 12.5213 -180 4.57639e-005 178.664 175.613 72.4992 -179.079 4.69954e-006 -1.78206e-007 1.41525 -17.2608 65.5602 17.69 8.13649 25.2327 -3.48774 -146.42 56.6039 -33.854 4.5067e-006 -1.99009e-005 -1.00515 1.12212 -78.536 4.0713 1.02248e-006 -1.9416e-007 -1.58294 17.5781 66.14 -18.1027 -8.13649 25.2327 3.48773 
53.4147 57.5865 -6.19079 -2.23117 -23.486 -2.99093 0.461451 1.77951 0.295274 0.917151 7.5647 0.506749 0.913361 9.20964 0.492186 -0.381358 38.7609 0.092824 -1.53239 -18.0476 -0.484089 77.6417 8.00618 1.16118 91.3829 21.371 -10.491 2.16427e-006 6.7682e-007 -6.25189e-006 20.3587 40.4734 -8.44224 -7.96504e-006 1.62816e-006 -2.99999 8.02891 -4.95085 0.697371 -71.5862 6.25008 -1.48704 -99.2491 23.4566 0.683898 -3.71702e-006 -3.96598e-006 2.33218e-006 -22.5574 33.2552 7.99153 1.7741e-005 5.63921e-006 3 -8.02924 -4.95119 -0.697549 170.274 58.9608 12.5053 -180 4.57639e-005 178.663 175.644 72.4956 -179.103 4.69954e-006 -1.78206e-007 1.41521 -17.2546 65.5507 17.684 8.13649 25.2327 -3.48774 -146.41 56.6152 -33.863 4.5067e-006 -1.99009e-005 -1.00515 1.13127 -78.5427 4.08099 1.02248e-006 -1.9416e-007 -1.58287 17.579 66.1412 -18.1037 -8.13649 25.2327 3.48773 
53.415 57.5865 -6.18742 -2.22791 -23.4798 -2.99164 0.461011 1.77942 0.29497 0.916273 7.56505 0.506361 0.912484 9.21 0.491839 -0.414255 38.8337 0.111592 -1.51277 -18.1123 -0.478464 77.6185 8.06444 1.18934 91.3921 21.339 -10.4877 2.16427e-006 6.7682e-007 -6.25189e-006 20.358 40.4925 -8.44734 -7.96504e-006 1.62816e-006 -2.99999 8.02891 -4.95085 0.697371 -71.6046 6.27429 -1.49511 -99.19 23.4521 0.719279 -3.71702e-006 -3.96598e-006 2.33218e-006 -22.5992 33.258 8.00098 1.7741e-005 5.63921e-006 3 -8.02924 -4.95119 -0.697549 170.29 58.9503 12.489 -180 4.57639e-005 178.663 175.676 72.4918 -179.128 4.69954e-006 -1.78206e-007 1.41514 -17.248 65.5407 17.6776 8.13649 25.2327 -3.48774 -146.401 56.626 -33.8722 4.5067e-006 -1.99009e-005 -1.00515 1.13967 -78.5492 4.09012 1.02248e-006 -1.9416e-007 -1.58278 17.58 66.1426 -18.1047 -8.13649 25.2327 3.48773 
53.4127 57.5869 -6.18715 -2.22468 -23.4736 -2.99242 0.460528 1.77926 0.294664 0.915309 7.56532 0.505966 0.911522 9.21026 0.491489 -0.446179 38.9068 0.129967 -1.49396 -18.1771 -0.472944 77.5959 8.12347 1.2177 91.4013 21.306 -10.483 2.16427e-006 6.7682e-007 -6.25189e-006 20.357 40.5116 -8.45245 -7.96504e-006 1.62816e-006 -2.99999 8.02891 -4.95085 0.697371 -71.6237 6.29854 -1.50311 -99.1305 23.4473 0.75344 -3.71702e-006 -3.96598e-006 2.33218e-006 -22.6404 33.2606 8.01022 1.7741e-005 5.63921e-006 3 -8.02924 -4.95119 -0.697549 170.307 58.9389 12.4724 -180 4.57639e-005 178.663 175.709 72.4878 -179.154 4.69954e-006 -1.78206e-007 1.41505 -17.2412 65.5304 17.6711 8.13649 25.2327 -3.48774 -146.391 56.6365 -33.8815 4.5067e-006 -1.99009e-005 -1.00515 1.14755 -78.5556 4.09886 1.02248e-006 -1.9416e-007 -1.58266 17.581 66.1439 -18.1057 -8.13649 25.2327 3.48773 
